# xmcd CD database file
#
# Track frame offsets:
#	150
#	16965
#	32495
#	45850
#	61137
#	73660
#	86510
#	99107
#	116295
#	133552
#	147037
#	160908
#
# Disc length: 2315 seconds
#
# Revision: 1
# Processed by: cddbd v1.5.1PL0 Copyright (c) Steve Scherf et al.
# Submitted via: CDex 1.51
#
DISCID=8709090c
DTITLE=Stanley Turrentine - Flipped
DYEAR=1970
DGENRE=Jazz
TTITLE0=Flipped Out
TTITLE1=Brown Eyed Woman
TTITLE2=I Only Get This Feeling
TTITLE3=I'm The One
TTITLE4=Flipped
TTITLE5=My Cherie Amour
TTITLE6=Wedding Bell Blues
TTITLE7=Toe Hold
TTITLE8=Let It Be
TTITLE9=Yester Me, Yester You
TTITLE10=I'll Take You All The Way There
TTITLE11=Deuces Wild
EXTD=YEAR: 1970
EXTT0=
EXTT1=
EXTT2=
EXTT3=
EXTT4=
EXTT5=
EXTT6=
EXTT7=
EXTT8=
EXTT9=
EXTT10=
EXTT11=
PLAYORDER=
